<svg xmlns="http://www.w3.org/2000/svg" enable-background="new 0 0 24 24" viewBox="0 0 24 24"><path d="M21 23c-.002 0-.003 0-.005 0-.179-.002-.342-.098-.43-.253l-11.913-21C8.564 1.592 8.565 1.402 8.655 1.249 8.744 1.095 8.909 1 9.087 1h4.073c1.261 0 2.429.682 3.049 1.78l7.328 12.99c.615 1.089.6 2.434-.04 3.509l-2.067 3.476C21.34 22.907 21.176 23 21 23zM9.945 2L21.01 21.504l1.628-2.736c.457-.768.468-1.728.028-2.506l0 0-7.328-12.99C14.896 2.487 14.061 2 13.16 2H9.945zM13.5 15h-12c-.18 0-.347-.097-.436-.253-.088-.157-.086-.349.007-.504l6-10c.18-.301.678-.301.857 0l6 10c.093.155.095.347.007.504C13.847 14.903 13.68 15 13.5 15zM2.383 14h10.234L7.5 5.472 2.383 14zM17.5 23H5.198c-1.223 0-2.372-.651-3.001-1.699l-2.126-3.543c-.093-.155-.095-.347-.007-.504C.153 17.097.32 17 .5 17h14c.176 0 .339.092.429.243l3 5c.093.155.095.347.007.504C17.847 22.903 17.68 23 17.5 23zM1.383 18l1.672 2.786C3.504 21.535 4.325 22 5.198 22h11.419l-2.4-4H1.383z"/></svg>